<svg version="1.1" viewBox="0.0 0.0 960.0 720.0" fill="none" stroke="none" stroke-linecap="square" stroke-miterlimit="10" xmlns:xlink="http://www.w3.org/1999/xlink" xmlns="http://www.w3.org/2000/svg"><clipPath id="p.0"><path d="m0 0l960.0 0l0 720.0l-960.0 0l0 -720.0z" clip-rule="nonzero"/></clipPath><g clip-path="url(#p.0)"><path fill="#000000" fill-opacity="0.0" d="m0 0l960.0 0l0 720.0l-960.0 0z" fill-rule="evenodd"/><defs><radialGradient id="p.1" gradientUnits="userSpaceOnUse" gradientTransform="matrix(10.850547693670798 0.0 0.0 10.850547693670798 0.0 0.0)" spreadMethod="pad" cx="46.15375568672612" cy="35.428172933689396" fx="46.15375568672612" fy="35.428172933689396" r="10.850547790527344"><stop offset="0.0" stop-color="#b7b7b7"/><stop offset="1.0" stop-color="#404040"/></radialGradient></defs><path fill="url(#p.1)" d="m536.79504 306.83554c4.0339966 0 7.7771606 0.5253296 11.229492 1.5760498c3.4711304 1.0507202 6.0510254 2.673706 7.739685 4.8689575c1.6886597 2.1764832 2.1014404 5.328644 1.2383423 9.456451c-0.15008545 0.6942444 -0.31896973 1.3415527 -0.5065918 1.9419556c-0.0057373047 0.018371582 -0.010620117 0.03668213 -0.0146484375 0.054992676l0 0c-6.189087 -4.5284424 -13.239014 -8.1586 -21.14978 -10.890503c-7.1054688 -2.459015 -12.77356 -4.002228 -17.004333 -4.629669l0 0c1.1578369 -0.14297485 2.669983 -0.41036987 4.536438 -0.80218506c4.9345703 -1.0507202 9.578369 -1.5760498 13.9313965 -1.5760498zm3.5461426 -10.835541c-6.623291 0 -13.406006 0.8161926 -20.348267 2.4485474c-6.923462 1.613617 -13.321594 3.8651428 -19.194366 6.754608c-3.9214172 -0.69421387 -8.293152 -1.3602905 -13.115204 -1.99823c-4.8032837 -0.65670776 -9.775421 -0.9850464 -14.916443 -0.9850464c-8.049255 0 -15.404266 1.2946167 -22.065063 3.8839111c-6.6420593 2.589264 -13.255951 7.04541 -19.841705 13.3685c-1.069458 0.9944153 -2.4203796 2.4485474 -4.052765 4.362335c-1.6323547 1.89505 -2.6361694 3.7807312 -3.0114136 5.657013c-0.112579346 0.5440979 -0.34710693 2.1764832 -0.7036133 4.8970947c-0.33773804 2.7206116 1.313385 4.080902 4.953369 4.080902c1.0205383 0 1.6153259 -0.3142395 1.7843933 -0.942688l0 0c0.031036377 0.08935547 0.06478882 0.19720459 0.10128784 0.32351685c0.243927 0.84432983 1.0882263 1.8293762 2.5329895 2.9551392c1.463501 1.1069946 3.461731 1.6605225 5.9947205 1.6605225c0.7317505 0 1.8012085 -0.16888428 3.208435 -0.5066223c1.4259644 -0.35647583 2.7018433 -1.651123 3.8276062 -3.8838806c-1.0882263 -3.0583496 -2.5142212 -4.63443 -4.2779236 -4.728241c-1.7449341 -0.093811035 -2.9176025 -0.22515869 -3.518036 -0.39401245c-0.60040283 -0.18762207 -1.0225525 -0.4784546 -1.2664795 -0.87246704c-0.22515869 -0.39401245 -0.15948486 -1.463501 0.19702148 -3.208435c0.22512817 -1.0132141 0.60040283 -1.8293762 1.1257629 -2.4485474c0.5253601 -0.63793945 1.36969 -1.4822693 2.5329895 -2.5329895c4.0152283 -3.5649414 8.002319 -5.9665833 11.961273 -7.2049255c3.9589539 -1.2571106 8.340088 -1.8856506 13.143372 -1.8856506c4.3529663 0 8.73407 0.2814331 13.143341 0.8442993c1.7178955 0.21932983 3.1096802 0.3289795 4.175354 0.3289795c0.31137085 0 0.59490967 -0.0093688965 0.85061646 -0.028076172l0 0c-5.8172607 2.7574158 -12.614838 7.676178 -20.39273 14.756287c-8.555817 7.78656 -15.929626 16.426819 -22.121338 25.920807c-6.191742 9.47522 -10.403992 19.494568 -12.63678 30.058044c-3.114624 14.559937 -1.0788574 25.414246 6.1073 32.562866c7.2049255 7.1486206 17.590149 10.722961 31.15567 10.722961c8.274414 0 16.933441 -1.1914673 25.977112 -3.5743408c9.043671 -2.3828735 17.871582 -5.732025 26.483704 -10.047485c5.3242188 -2.673645 9.545227 -5.293762 12.663208 -7.860321l0 0c-0.41046143 0.74993896 -0.8414917 1.5875854 -1.2929077 2.5129395c-2.626831 5.4224243 -5.58197 11.023132 -8.8654175 16.802094c-3.2647705 5.797699 -6.829712 11.248291 -10.694824 16.351776c-3.8651428 5.1222534 -7.871002 9.325134 -12.017609 12.608612c-4.146576 3.2835083 -8.396332 5.2817383 -12.749329 5.9947205c-0.30020142 0.07507324 -0.66607666 0.112579346 -1.0976257 0.112579346l-1.5197754 0c-0.5628967 0 -1.3884583 -0.2814331 -2.4766846 -0.84432983c-1.0694885 -0.5440979 -1.8669128 -1.1539001 -2.392273 -1.8293457c-0.5253601 -0.6754761 -0.7692566 -1.0976257 -0.7317505 -1.26651c0.112579346 -0.5441284 0.42218018 -1.2383423 0.928772 -2.082672c0.5253601 -0.84432983 0.92874146 -1.8762817 1.2102051 -3.0958557c0.67544556 -3.3773193 -0.5722656 -5.065979 -3.7431946 -5.065979c-2.3641052 0 -4.0903015 1.022583 -5.178528 3.067749c-1.0882568 2.0639038 -1.7449646 3.6024475 -1.9700928 4.615631c-0.35650635 1.7261963 -0.41278076 3.077118 -0.16888428 4.052765c0.05532837 0.20547485 0.10357666 0.39471436 0.14474487 0.5677185l0 0c-0.01739502 -0.0010986328 -0.03466797 -0.0016479492 -0.051879883 -0.0016479492c-0.74142456 0 -1.3071289 1.0027466 -1.6970825 3.0082703c-0.5065918 2.1201782 0.112579346 3.7713013 1.8575134 4.953369c1.7449646 1.2008057 2.8707275 1.9419556 3.3773193 2.2233887c1.219574 0.69421387 2.6268005 1.1445312 4.2216187 1.3509216c1.5948486 0.20639038 3.0489807 0.30960083 4.3623657 0.30960083l1.3227844 0c0.5441284 0 1.116394 -0.06567383 1.7167969 -0.19702148c2.3265991 -0.22515869 4.5968933 -0.59103394 6.810913 -1.0976257c2.2327576 -0.4878235 4.587494 -1.2289734 7.0641785 -2.2233887c7.129883 -2.8519592 13.4904785 -7.064209 19.081818 -12.636749c5.5913086 -5.5538025 10.563416 -11.764282 14.916443 -18.63147c4.3529663 -6.8484497 8.227478 -13.7344055 11.623535 -20.657867c3.3960571 -6.94223 6.4731445 -13.3685 9.231323 -19.278809c1.0882568 -2.4204102 2.4204102 -5.328644 3.99646 -8.724701c1.5948486 -3.4148254 3.2647095 -6.6795654 5.0097046 -9.794189c1.7636719 -3.114624 3.4053955 -5.450592 4.925232 -7.007904c0.39398193 -0.2626953 1.4728394 -0.88186646 3.2365723 -1.857544c1.7824707 -0.9944153 3.6680908 -2.2233887 5.6569824 -3.6868896c2.0076294 -1.4822388 3.1802979 -3.020813 3.5180054 -4.615631c0.6754761 -3.358551 -0.6191406 -5.037842 -3.8839111 -5.037842c-1.2383423 0 -2.326538 0.39404297 -3.2647095 1.1820679c-2.0263672 1.707428 -4.4749146 3.0958557 -7.345642 4.165344c-2.8707275 1.0507202 -5.525635 1.5760803 -7.9647827 1.5760803c-8.21814 0 -16.408081 -0.31896973 -24.569946 -0.9569092c-8.143066 -0.63793945 -16.473755 -0.9569092 -24.992065 -0.9569092c-4.671936 0 -9.400177 0.60980225 -14.184692 1.8293762c-4.7845154 1.2196045 -9.4470825 2.917633 -13.987671 5.094116c-1.0694885 0.4690857 -2.7487488 1.3415222 -5.0378113 2.6174011c-2.2702942 1.2758789 -4.578125 2.767517 -6.9234924 4.474945c-2.3265686 1.6886597 -3.705658 3.555542 -4.1371765 5.600708c-0.6754761 3.1896667 1.4447327 6.2480164 6.360565 9.175018c2.3453674 -3.2835083 3.9026794 -5.638214 4.6719666 -7.064209c0.7880249 -1.4447327 1.6886292 -2.6174011 2.7018433 -3.518036c2.082672 -1.9700928 4.84079 -3.2553406 8.274384 -3.8557434c3.4335938 -0.60043335 6.538849 -0.90063477 9.315735 -0.90063477c0.487854 0 1.0694885 0.028167725 1.7449646 0.08444214c0.69421387 0.056274414 1.3509216 0.08444214 1.9700928 0.08444214c7.6552124 0.33770752 15.385529 0.7974243 23.190826 1.3790588c7.805359 0.5816345 15.676331 0.87246704 23.613037 0.87246704c0.27618408 0 0.5545654 -0.002166748 0.835083 -0.006500244l0 0c-0.20831299 0.3139038 -0.40222168 0.6538086 -0.5817871 1.0196838c-0.9944458 2.0076294 -1.857544 3.8370056 -2.5892944 5.4881287c-3.696289 4.071533 -7.78656 7.964813 -12.270874 11.679871c-5.140991 4.334198 -10.901184 8.143066 -17.280579 11.426544c-6.360565 3.26474 -12.861877 5.8164673 -19.503937 7.655243c-6.6232605 1.8199768 -12.94632 2.7299805 -18.969208 2.7299805c-6.848419 0 -12.62735 -1.116394 -17.336823 -3.3491516c-4.6907043 -2.232788 -8.039886 -5.563202 -10.047485 -9.991211c-2.0076294 -4.4280396 -2.2796936 -10.113159 -0.8161926 -17.05539c1.36969 -6.473175 3.902649 -13.030792 7.598938 -19.672821c3.696289 -6.660797 8.143066 -13.115204 13.340363 -19.36322c5.2160645 -6.2480164 10.807373 -12.017609 16.773956 -17.308716c5.9853516 -5.291107 11.510986 -9.587799 16.576935 -12.890045c8.874817 1.6323547 18.228119 4.1184387 28.059784 7.4582214c9.850525 3.3210144 19.006775 6.5294495 27.468811 9.625305c-0.76782227 -0.27243042 -1.3902588 -0.40863037 -1.8674316 -0.40863037c-0.60736084 0 -0.9793091 0.22064209 -1.1159058 0.6619568c-0.22515869 0.7692566 -0.40338135 1.4916382 -0.534729 2.1670837c-0.99438477 4.5030823 0.7505493 6.754608 5.2348633 6.754608c3.3397827 0 5.666321 -0.8349304 6.9797363 -2.5048218c1.3321533 -1.6886597 2.5517578 -3.26474 3.6587524 -4.728241c0.2626953 -0.31896973 0.60980225 -0.7317505 1.0413208 -1.2383423c0.4315796 -0.5253601 0.7130127 -1.1257629 0.84436035 -1.801239c2.0263672 -3.4335938 3.4523315 -7.1392517 4.277893 -11.116943c1.1445312 -5.3098755 0.7505493 -9.822357 -1.1820679 -13.537384c-1.9137573 -3.7150269 -4.690674 -6.566986 -8.330688 -8.555847c-3.6399536 -1.9888611 -7.552002 -3.3866882 -11.736145 -4.1934814c-4.165344 -0.8067932 -8.199341 -1.2102051 -12.10199 -1.2102051z" fill-rule="evenodd"/><path stroke="#000000" stroke-width="1.0" stroke-linejoin="round" stroke-linecap="butt" d="m536.79504 306.83554c4.0339966 0 7.7771606 0.5253296 11.229492 1.5760498c3.4711304 1.0507202 6.0510254 2.673706 7.739685 4.8689575c1.6886597 2.1764832 2.1014404 5.328644 1.2383423 9.456451c-0.15008545 0.6942444 -0.31896973 1.3415527 -0.5065918 1.9419556c-0.0057373047 0.018371582 -0.010620117 0.03668213 -0.0146484375 0.054992676l0 0c-6.189087 -4.5284424 -13.239014 -8.1586 -21.14978 -10.890503c-7.1054688 -2.459015 -12.77356 -4.002228 -17.004333 -4.629669l0 0c1.1578369 -0.14297485 2.669983 -0.41036987 4.536438 -0.80218506c4.9345703 -1.0507202 9.578369 -1.5760498 13.9313965 -1.5760498zm3.5461426 -10.835541c-6.623291 0 -13.406006 0.8161926 -20.348267 2.4485474c-6.923462 1.613617 -13.321594 3.8651428 -19.194366 6.754608c-3.9214172 -0.69421387 -8.293152 -1.3602905 -13.115204 -1.99823c-4.8032837 -0.65670776 -9.775421 -0.9850464 -14.916443 -0.9850464c-8.049255 0 -15.404266 1.2946167 -22.065063 3.8839111c-6.6420593 2.589264 -13.255951 7.04541 -19.841705 13.3685c-1.069458 0.9944153 -2.4203796 2.4485474 -4.052765 4.362335c-1.6323547 1.89505 -2.6361694 3.7807312 -3.0114136 5.657013c-0.112579346 0.5440979 -0.34710693 2.1764832 -0.7036133 4.8970947c-0.33773804 2.7206116 1.313385 4.080902 4.953369 4.080902c1.0205383 0 1.6153259 -0.3142395 1.7843933 -0.942688l0 0c0.031036377 0.08935547 0.06478882 0.19720459 0.10128784 0.32351685c0.243927 0.84432983 1.0882263 1.8293762 2.5329895 2.9551392c1.463501 1.1069946 3.461731 1.6605225 5.9947205 1.6605225c0.7317505 0 1.8012085 -0.16888428 3.208435 -0.5066223c1.4259644 -0.35647583 2.7018433 -1.651123 3.8276062 -3.8838806c-1.0882263 -3.0583496 -2.5142212 -4.63443 -4.2779236 -4.728241c-1.7449341 -0.093811035 -2.9176025 -0.22515869 -3.518036 -0.39401245c-0.60040283 -0.18762207 -1.0225525 -0.4784546 -1.2664795 -0.87246704c-0.22515869 -0.39401245 -0.15948486 -1.463501 0.19702148 -3.208435c0.22512817 -1.0132141 0.60040283 -1.8293762 1.1257629 -2.4485474c0.5253601 -0.63793945 1.36969 -1.4822693 2.5329895 -2.5329895c4.0152283 -3.5649414 8.002319 -5.9665833 11.961273 -7.2049255c3.9589539 -1.2571106 8.340088 -1.8856506 13.143372 -1.8856506c4.3529663 0 8.73407 0.2814331 13.143341 0.8442993c1.7178955 0.21932983 3.1096802 0.3289795 4.175354 0.3289795c0.31137085 0 0.59490967 -0.0093688965 0.85061646 -0.028076172l0 0c-5.8172607 2.7574158 -12.614838 7.676178 -20.39273 14.756287c-8.555817 7.78656 -15.929626 16.426819 -22.121338 25.920807c-6.191742 9.47522 -10.403992 19.494568 -12.63678 30.058044c-3.114624 14.559937 -1.0788574 25.414246 6.1073 32.562866c7.2049255 7.1486206 17.590149 10.722961 31.15567 10.722961c8.274414 0 16.933441 -1.1914673 25.977112 -3.5743408c9.043671 -2.3828735 17.871582 -5.732025 26.483704 -10.047485c5.3242188 -2.673645 9.545227 -5.293762 12.663208 -7.860321l0 0c-0.41046143 0.74993896 -0.8414917 1.5875854 -1.2929077 2.5129395c-2.626831 5.4224243 -5.58197 11.023132 -8.8654175 16.802094c-3.2647705 5.797699 -6.829712 11.248291 -10.694824 16.351776c-3.8651428 5.1222534 -7.871002 9.325134 -12.017609 12.608612c-4.146576 3.2835083 -8.396332 5.2817383 -12.749329 5.9947205c-0.30020142 0.07507324 -0.66607666 0.112579346 -1.0976257 0.112579346l-1.5197754 0c-0.5628967 0 -1.3884583 -0.2814331 -2.4766846 -0.84432983c-1.0694885 -0.5440979 -1.8669128 -1.1539001 -2.392273 -1.8293457c-0.5253601 -0.6754761 -0.7692566 -1.0976257 -0.7317505 -1.26651c0.112579346 -0.5441284 0.42218018 -1.2383423 0.928772 -2.082672c0.5253601 -0.84432983 0.92874146 -1.8762817 1.2102051 -3.0958557c0.67544556 -3.3773193 -0.5722656 -5.065979 -3.7431946 -5.065979c-2.3641052 0 -4.0903015 1.022583 -5.178528 3.067749c-1.0882568 2.0639038 -1.7449646 3.6024475 -1.9700928 4.615631c-0.35650635 1.7261963 -0.41278076 3.077118 -0.16888428 4.052765c0.05532837 0.20547485 0.10357666 0.39471436 0.14474487 0.5677185l0 0c-0.01739502 -0.0010986328 -0.03466797 -0.0016479492 -0.051879883 -0.0016479492c-0.74142456 0 -1.3071289 1.0027466 -1.6970825 3.0082703c-0.5065918 2.1201782 0.112579346 3.7713013 1.8575134 4.953369c1.7449646 1.2008057 2.8707275 1.9419556 3.3773193 2.2233887c1.219574 0.69421387 2.6268005 1.1445312 4.2216187 1.3509216c1.5948486 0.20639038 3.0489807 0.30960083 4.3623657 0.30960083l1.3227844 0c0.5441284 0 1.116394 -0.06567383 1.7167969 -0.19702148c2.3265991 -0.22515869 4.5968933 -0.59103394 6.810913 -1.0976257c2.2327576 -0.4878235 4.587494 -1.2289734 7.0641785 -2.2233887c7.129883 -2.8519592 13.4904785 -7.064209 19.081818 -12.636749c5.5913086 -5.5538025 10.563416 -11.764282 14.916443 -18.63147c4.3529663 -6.8484497 8.227478 -13.7344055 11.623535 -20.657867c3.3960571 -6.94223 6.4731445 -13.3685 9.231323 -19.278809c1.0882568 -2.4204102 2.4204102 -5.328644 3.99646 -8.724701c1.5948486 -3.4148254 3.2647095 -6.6795654 5.0097046 -9.794189c1.7636719 -3.114624 3.4053955 -5.450592 4.925232 -7.007904c0.39398193 -0.2626953 1.4728394 -0.88186646 3.2365723 -1.857544c1.7824707 -0.9944153 3.6680908 -2.2233887 5.6569824 -3.6868896c2.0076294 -1.4822388 3.1802979 -3.020813 3.5180054 -4.615631c0.6754761 -3.358551 -0.6191406 -5.037842 -3.8839111 -5.037842c-1.2383423 0 -2.326538 0.39404297 -3.2647095 1.1820679c-2.0263672 1.707428 -4.4749146 3.0958557 -7.345642 4.165344c-2.8707275 1.0507202 -5.525635 1.5760803 -7.9647827 1.5760803c-8.21814 0 -16.408081 -0.31896973 -24.569946 -0.9569092c-8.143066 -0.63793945 -16.473755 -0.9569092 -24.992065 -0.9569092c-4.671936 0 -9.400177 0.60980225 -14.184692 1.8293762c-4.7845154 1.2196045 -9.4470825 2.917633 -13.987671 5.094116c-1.0694885 0.4690857 -2.7487488 1.3415222 -5.0378113 2.6174011c-2.2702942 1.2758789 -4.578125 2.767517 -6.9234924 4.474945c-2.3265686 1.6886597 -3.705658 3.555542 -4.1371765 5.600708c-0.6754761 3.1896667 1.4447327 6.2480164 6.360565 9.175018c2.3453674 -3.2835083 3.9026794 -5.638214 4.6719666 -7.064209c0.7880249 -1.4447327 1.6886292 -2.6174011 2.7018433 -3.518036c2.082672 -1.9700928 4.84079 -3.2553406 8.274384 -3.8557434c3.4335938 -0.60043335 6.538849 -0.90063477 9.315735 -0.90063477c0.487854 0 1.0694885 0.028167725 1.7449646 0.08444214c0.69421387 0.056274414 1.3509216 0.08444214 1.9700928 0.08444214c7.6552124 0.33770752 15.385529 0.7974243 23.190826 1.3790588c7.805359 0.5816345 15.676331 0.87246704 23.613037 0.87246704c0.27618408 0 0.5545654 -0.002166748 0.835083 -0.006500244l0 0c-0.20831299 0.3139038 -0.40222168 0.6538086 -0.5817871 1.0196838c-0.9944458 2.0076294 -1.857544 3.8370056 -2.5892944 5.4881287c-3.696289 4.071533 -7.78656 7.964813 -12.270874 11.679871c-5.140991 4.334198 -10.901184 8.143066 -17.280579 11.426544c-6.360565 3.26474 -12.861877 5.8164673 -19.503937 7.655243c-6.6232605 1.8199768 -12.94632 2.7299805 -18.969208 2.7299805c-6.848419 0 -12.62735 -1.116394 -17.336823 -3.3491516c-4.6907043 -2.232788 -8.039886 -5.563202 -10.047485 -9.991211c-2.0076294 -4.4280396 -2.2796936 -10.113159 -0.8161926 -17.05539c1.36969 -6.473175 3.902649 -13.030792 7.598938 -19.672821c3.696289 -6.660797 8.143066 -13.115204 13.340363 -19.36322c5.2160645 -6.2480164 10.807373 -12.017609 16.773956 -17.308716c5.9853516 -5.291107 11.510986 -9.587799 16.576935 -12.890045c8.874817 1.6323547 18.228119 4.1184387 28.059784 7.4582214c9.850525 3.3210144 19.006775 6.5294495 27.468811 9.625305c-0.76782227 -0.27243042 -1.3902588 -0.40863037 -1.8674316 -0.40863037c-0.60736084 0 -0.9793091 0.22064209 -1.1159058 0.6619568c-0.22515869 0.7692566 -0.40338135 1.4916382 -0.534729 2.1670837c-0.99438477 4.5030823 0.7505493 6.754608 5.2348633 6.754608c3.3397827 0 5.666321 -0.8349304 6.9797363 -2.5048218c1.3321533 -1.6886597 2.5517578 -3.26474 3.6587524 -4.728241c0.2626953 -0.31896973 0.60980225 -0.7317505 1.0413208 -1.2383423c0.4315796 -0.5253601 0.7130127 -1.1257629 0.84436035 -1.801239c2.0263672 -3.4335938 3.4523315 -7.1392517 4.277893 -11.116943c1.1445312 -5.3098755 0.7505493 -9.822357 -1.1820679 -13.537384c-1.9137573 -3.7150269 -4.690674 -6.566986 -8.330688 -8.555847c-3.6399536 -1.9888611 -7.552002 -3.3866882 -11.736145 -4.1934814c-4.165344 -0.8067932 -8.199341 -1.2102051 -12.10199 -1.2102051z" fill-rule="evenodd"/></g></svg>